<?xml version="1.0" encoding="utf-8"?>
<!-- Generator: Adobe Illustrator 28.2.0, SVG Export Plug-In . SVG Version: 6.00 Build 0)  -->
<svg version="1.1" xmlns="http://www.w3.org/2000/svg" xmlns:xlink="http://www.w3.org/1999/xlink" x="0px" y="0px"
	 viewBox="0 0 1200 819" style="enable-background:new 0 0 1200 819;" xml:space="preserve">
<style type="text/css">
	.st0{fill:#F4E4DC;}
	.st1{fill:#E4B5B1;}
	.st2{fill:#272525;}
	.st3{fill:#BFA674;}
</style>
<g id="Background">
</g>
<g id="Graphic_Elements">
	<g>
		<g>
			<path class="st0" d="M770.2,643.4H429.8c-7.2,0-13.1-5.9-13.1-13.1c0-7.2,5.9-13.1,13.1-13.1h340.3c7.2,0,13.1,5.9,13.1,13.1
				C783.3,637.6,777.4,643.4,770.2,643.4z"/>
		</g>
		<g>
			<path class="st1" d="M771.9,181.7c-5.9-5.9-15.3-9.7-64.4,8.6c-17.9,6.7-41.2,16.6-60.1,26.9c-2.6-6.7-4.9-12.1-6.4-15.5
				C614.1,139,603.2,139,596.7,139s-17.4,0-44.3,62.7c-1.5,3.4-3.8,8.9-6.4,15.5c-18.9-10.3-42.3-20.2-60.1-26.9
				c-49.1-18.3-58.5-14.5-64.4-8.6c-4.6,4.6-12.3,12.3,13,75.6c5.5,13.7,24.6,59.7,41.2,76.3c13.3,13.3,31.1,20.1,49,20.1
				c12.5,0,25-3.3,36-10c10.5,6.5,22.9,10.2,36.1,10.2c13.2,0,25.6-3.7,36.1-10.2c11,6.7,23.5,10,36,10c17.8,0,35.6-6.8,49-20.1
				c16.6-16.6,35.7-62.6,41.2-76.3C784.2,194,776.5,186.3,771.9,181.7z M494.3,315c-15.8-15.8-43.6-83.3-50-110.6
				c20.6,5,64.9,22,92.7,37.7c-5.1,15.4-9.3,31.5-9.3,42.6c0,14.8,4.7,28.6,12.7,39.8C524.8,330.6,506.5,327.3,494.3,315z
				 M553.8,284.7c0-22.4,28.1-89.8,42.9-113.6c14.7,23.8,42.9,91.2,42.9,113.6c0,23.6-19.2,42.9-42.9,42.9S553.8,308.4,553.8,284.7z
				 M699.2,315c-12.3,12.3-30.5,15.5-46,9.5c8-11.3,12.7-25,12.7-39.8c0-11.1-4.2-27.2-9.3-42.6c27.8-15.7,72.1-32.7,92.7-37.7
				C742.7,231.8,715,299.2,699.2,315z"/>
			
				<ellipse transform="matrix(0.9966 -8.248098e-02 8.248098e-02 0.9966 -5.2204 49.5176)" class="st1" cx="596.7" cy="87.9" rx="20.9" ry="20.9"/>
			
				<ellipse transform="matrix(0.9951 -9.853832e-02 9.853832e-02 0.9951 -11.2812 68.7665)" class="st1" cx="690.5" cy="148.6" rx="20.9" ry="20.9"/>
			
				<ellipse transform="matrix(0.9951 -9.853832e-02 9.853832e-02 0.9951 -12.1943 50.2791)" class="st1" cx="502.9" cy="148.6" rx="20.9" ry="20.9"/>
		</g>
	</g>
</g>
<g id="Text">
	<g>
		<path class="st2" d="M262.7,491.3c4.3,4.4,6.4,9.8,6.4,16c0,5.2-1.3,9.8-4,13.8c-2.6,4-6.4,7.1-11.4,9.4
			c-4.9,2.2-10.8,3.4-17.5,3.4c-2.5,0-4.6,0-6.3-0.1c-5.8-0.2-11.6-0.3-17.3-0.3c-7.5,0-13.2,0.1-17,0.4V531
			c3.3-0.2,5.7-0.5,7.2-1.1c1.5-0.5,2.5-1.6,3.1-3.2c0.5-1.6,0.8-4.1,0.8-7.5v-68c0-3.5-0.3-6-0.8-7.5c-0.5-1.6-1.6-2.6-3.1-3.2
			c-1.5-0.5-3.9-0.9-7.2-1.1v-2.7c3.8,0.3,9.4,0.4,16.7,0.4l14.8-0.1c1.7-0.1,3.7-0.1,5.9-0.1c9.3,0,16.5,2,21.4,5.9
			c5,3.9,7.5,9.1,7.5,15.6c0,5.3-1.7,10-5,14.2c-3.3,4.2-8.6,7.4-15.8,9.6v0.3C251.3,483.9,258.4,486.8,262.7,491.3z M223.3,440.5
			c-1.4,0.6-2.4,1.8-2.9,3.4s-0.8,4.1-0.8,7.4v31h9.2c7.5,0,12.7-2,15.7-6.1c3-4.1,4.5-9.5,4.5-16.2c0-6.9-1.5-12-4.5-15.3
			c-3-3.4-7.9-5.1-14.7-5.1C226.9,439.5,224.8,439.9,223.3,440.5z M255.5,506.7c0-7.2-1.9-12.7-5.8-16.4c-3.9-3.7-10.1-5.6-18.6-5.6
			h-11.5v34.7c0,3.3,0.3,5.7,0.8,7.3c0.5,1.6,1.5,2.6,2.9,3.2c1.4,0.6,3.6,0.9,6.5,0.9C246.9,530.6,255.5,522.6,255.5,506.7z"/>
		<path class="st2" d="M419.7,533.8c-6.2-0.3-16.7-0.4-31.4-0.4c-17.5,0-30.8,0.1-39.7,0.4V531c3.3-0.2,5.7-0.5,7.2-1.1
			c1.5-0.5,2.5-1.6,3.1-3.2c0.5-1.6,0.8-4.1,0.8-7.5v-68c0-3.5-0.3-6-0.8-7.5c-0.5-1.6-1.6-2.6-3.1-3.2c-1.5-0.5-3.9-0.9-7.2-1.1
			v-2.7c9,0.3,22.2,0.4,39.7,0.4c13.4,0,23-0.1,28.6-0.4c-0.6,6-1,11.4-1,16.2c0,3.6,0.1,6.4,0.4,8.5h-3.2
			c-0.6-5.9-1.5-10.3-2.5-13.2c-1-2.9-2.7-5-5.1-6.3c-2.4-1.3-6-2-10.8-2h-11.4c-3.3,0-5.7,0.3-7.2,0.8c-1.5,0.5-2.5,1.5-3.1,3.1
			c-0.5,1.6-0.8,4.1-0.8,7.5v32.3h9c3.2,0,5.7-0.8,7.4-2.3c1.7-1.5,2.9-3.3,3.5-5.3c0.6-2.1,1.1-4.6,1.4-7.7l0.4-2.7h3.2
			c-0.3,3.8-0.4,8.1-0.4,12.9v6.6c0,4.7,0.3,11.1,0.8,19.5h-3.2c-0.1-0.6-0.4-2.9-0.8-6.6c-0.5-3.8-1.7-6.6-3.8-8.6
			c-2.1-1.9-4.9-2.9-8.6-2.9h-9v32.9c0,3.5,0.3,6,0.8,7.5c0.5,1.6,1.6,2.6,3.1,3.1c1.5,0.5,3.9,0.8,7.2,0.8h10
			c5.7,0,10-0.8,12.9-2.3c3-1.5,5.1-3.9,6.5-7.3c1.4-3.3,2.4-8.2,3-14.7h3.2c-0.3,2.5-0.4,5.8-0.4,9.9
			C418.8,521.5,419.1,527.3,419.7,533.8z"/>
		<path class="st2" d="M573.7,531v2.7c-3.7-0.3-8.5-0.4-14.7-0.4c-7.9,0-13.7,0.1-17.5,0.4V531c3.5-0.2,6-0.6,7.5-1.3
			c1.5-0.7,2.3-1.9,2.3-3.8c0-1.6-0.5-3.7-1.6-6.4l-8.4-22.5h-33.2l-5.6,14.5c-1.8,4.9-2.7,8.7-2.7,11.2c0,2.8,1,4.9,2.9,6.2
			c2,1.3,5,2,9,2.1v2.7c-5.2-0.3-10.5-0.4-15.8-0.4c-4.1,0-7.5,0.1-10.3,0.4V531c4.6-1.1,8.2-5.1,10.8-11.9l32.2-83h2.2l33.4,86.2
			C566.5,527.9,569.6,530.9,573.7,531z M540.1,494.3l-15.3-41l-15.6,41H540.1z"/>
		<path class="st2" d="M722.9,439.5c-3.2,0.2-5.6,0.7-7.1,1.4c-1.6,0.8-2.6,2.1-3.2,3.8c-0.5,1.8-0.8,4.4-0.8,7.9v41.2
			c0,6.6-0.4,12.2-1.3,16.9c-0.9,4.7-2.3,8.7-4.3,12.1c-2.3,3.9-5.6,7-10.1,9.3c-4.4,2.3-9.4,3.4-15,3.4c-10,0-17.7-2.5-23-7.4
			c-4-3.7-6.7-8-8.1-12.7c-1.4-4.7-2.1-11.8-2.1-21.2v-43c0-3.5-0.3-6-0.8-7.5c-0.5-1.6-1.6-2.6-3.1-3.2c-1.5-0.5-3.9-0.9-7.2-1.1
			v-2.7c3.8,0.3,9.7,0.4,17.5,0.4c7.4,0,13.2-0.1,17.4-0.4v2.7c-3.3,0.2-5.7,0.5-7.2,1.1c-1.5,0.5-2.5,1.6-3.1,3.2
			c-0.5,1.6-0.8,4.1-0.8,7.5v45.3c0,7.3,0.5,13.4,1.5,18.2c1,4.8,3.1,8.7,6.2,11.6c3.2,2.9,7.8,4.4,13.9,4.4
			c9.7,0,16.5-3.1,20.4-9.3c3.9-6.2,5.9-14.9,5.9-26.2v-42.7c0-4.9-0.9-8.3-2.7-10.1c-1.8-1.8-5-2.8-9.8-3v-2.7
			c3.3,0.3,7.9,0.4,14,0.4c5.5,0,9.7-0.1,12.7-0.4V439.5z"/>
		<path class="st2" d="M867,454.3c0,4.6,0.1,8.3,0.4,11.2h-3.2c-0.7-7-1.6-12.3-2.7-15.7c-1.1-3.4-3-5.9-5.8-7.5
			c-2.7-1.6-6.9-2.4-12.6-2.4h-7.4v78c0,3.8,0.4,6.6,1.1,8.4c0.7,1.7,2,2.9,3.8,3.6c1.8,0.6,4.8,1.1,8.9,1.2v2.7
			c-4.8-0.3-11.5-0.4-20.1-0.4c-9.1,0-15.9,0.1-20.3,0.4V531c4.1-0.2,7.1-0.6,8.9-1.2c1.8-0.6,3.1-1.8,3.8-3.6
			c0.7-1.7,1.1-4.5,1.1-8.4v-78h-7.4c-5.7,0-9.9,0.8-12.6,2.4c-2.7,1.6-4.7,4.1-5.8,7.5c-1.1,3.4-2,8.7-2.7,15.7h-3.2
			c0.3-2.9,0.4-6.7,0.4-11.2c0-5.2-0.3-11-1-17.5c7.6,0.3,20.5,0.4,38.6,0.4c18.1,0,30.9-0.1,38.5-0.4
			C867.3,443.3,867,449.1,867,454.3z"/>
		<path class="st2" d="M1012.8,436.8v2.7c-1.8,0.5-3.6,1.6-5.3,3.5c-1.7,1.9-3.6,4.8-5.6,8.7l-21.5,42.6v24.9c0,3.5,0.3,6,0.8,7.5
			c0.5,1.6,1.6,2.6,3.1,3.2c1.5,0.5,3.9,0.9,7.2,1.1v2.7c-4.2-0.3-10-0.4-17.4-0.4c-7.9,0-13.7,0.1-17.5,0.4V531
			c3.3-0.2,5.7-0.5,7.2-1.1c1.5-0.5,2.5-1.6,3.1-3.2c0.5-1.6,0.8-4.1,0.8-7.5v-20.5l-27.8-51.4c-1.6-3-3.1-5-4.3-6.1
			c-1.2-1-2.4-1.6-3.6-1.6v-2.9c3.6,0.3,7.6,0.4,12.1,0.4c8.9,0,15.3-0.1,19.2-0.4v2.9c-6.4,0-9.6,1.7-9.6,5.2c0,1.4,0.5,3,1.4,4.8
			l22.7,43.7l17.5-34.8c2.5-4.8,3.7-8.8,3.7-11.8c0-2.6-1-4.4-3-5.5c-2-1.1-5-1.7-9-1.8v-2.7c5.2,0.3,10.5,0.4,15.8,0.4
			C1006.6,437.2,1010.1,437.1,1012.8,436.8z"/>
	</g>
	<g>
		<path class="st3" d="M188.7,735.4c9.2,0,15.3,4.8,17.2,12.6h-6.7c-1.3-4.5-5-7.3-10.5-7.3c-6.8,0-11.8,4.8-11.8,13.9
			c0,9.2,5,14.1,11.8,14.1c5.5,0,9.2-2.7,10.5-7.3h6.7c-1.9,7.4-8,12.6-17.2,12.6c-10.6,0-18.2-7.5-18.2-19.3
			C170.5,742.8,178.1,735.4,188.7,735.4z"/>
		<path class="st3" d="M227.7,722.9h6.2v50.3h-6.2V722.9z"/>
		<path class="st3" d="M267.8,720.1v5.4l-14.5,7.8v-4.6L267.8,720.1z M258.1,736h6.2v37.3h-6.2V736z"/>
		<path class="st3" d="M315.7,752.2c0-7.6-4.1-11.5-10.4-11.5c-6.3,0-10.7,3.9-10.7,12v20.6h-6.2V736h6.2v5.3c2.4-3.9,6.9-6,12-6
			c8.6,0,15.2,5.3,15.2,16v22h-6.1V752.2z"/>
		<path class="st3" d="M344.5,725.7c0-2.4,1.8-4.2,4.2-4.2c2.2,0,4.1,1.8,4.1,4.2s-1.8,4.2-4.1,4.2
			C346.3,729.9,344.5,728.1,344.5,725.7z M345.5,736h6.2v37.3h-6.2V736z"/>
		<path class="st3" d="M391.7,735.4c9.2,0,15.3,4.8,17.2,12.6h-6.7c-1.3-4.5-5-7.3-10.5-7.3c-6.8,0-11.8,4.8-11.8,13.9
			c0,9.2,5,14.1,11.8,14.1c5.5,0,9.2-2.7,10.5-7.3h6.7c-1.9,7.4-8,12.6-17.2,12.6c-10.6,0-18.2-7.5-18.2-19.3
			C373.5,742.8,381.1,735.4,391.7,735.4z"/>
		<path class="st3" d="M446.1,735.4c6.9,0,11.7,3.5,13.9,7.4V736h6.3v37.3H460v-6.9c-2.2,4-7.1,7.5-13.9,7.5
			c-9.9,0-17.6-7.8-17.6-19.4C428.4,742.8,436.1,735.4,446.1,735.4z M447.3,740.7c-6.8,0-12.6,5-12.6,13.7s5.8,13.9,12.6,13.9
			c6.8,0,12.6-5.1,12.6-13.9C460,745.9,454.1,740.7,447.3,740.7z"/>
		<path class="st3" d="M537.5,735.4c5.8,0,11.2,3,13.8,7.3v-19.7h6.3v50.3h-6.3v-7c-2.2,4.1-7.1,7.6-13.9,7.6
			c-10,0-17.7-7.8-17.7-19.4C519.7,742.8,527.4,735.4,537.5,735.4z M538.6,740.7c-6.8,0-12.6,5-12.6,13.7s5.8,13.9,12.6,13.9
			c6.8,0,12.6-5.1,12.6-13.9C551.3,745.9,545.4,740.7,538.6,740.7z"/>
		<path class="st3" d="M597.7,773.8c-10.6,0-18.4-7.5-18.4-19.3c0-11.8,7.5-19.2,18.4-19.2c10.8,0,17.9,7.6,17.9,17.8
			c0,1.4-0.1,2.4-0.2,3.7h-29.8c0.5,7.5,5.8,11.7,12.1,11.7c5.6,0,9.1-2.9,10.5-6.9h6.7C613,768.5,607,773.8,597.7,773.8z
			 M585.7,751.9h23.5c0.1-7.3-5.4-11.3-11.8-11.3C591.4,740.6,586.4,744.6,585.7,751.9z"/>
		<path class="st3" d="M685.2,773.8c-10.6,0-18.4-7.5-18.4-19.3c0-11.8,7.5-19.2,18.4-19.2c10.8,0,17.9,7.6,17.9,17.8
			c0,1.4-0.1,2.4-0.2,3.7h-29.8c0.5,7.5,5.8,11.7,12.1,11.7c5.6,0,9.1-2.9,10.5-6.9h6.7C700.5,768.5,694.5,773.8,685.2,773.8z
			 M673.2,751.9h23.5c0.1-7.3-5.4-11.3-11.8-11.3C678.9,740.6,673.9,744.6,673.2,751.9z"/>
		<path class="st3" d="M738.1,773.8c-8.7,0-14.8-4.8-15.2-11.6h6.4c0.3,3.6,3.5,6.3,8.8,6.3c4.9,0,7.6-2.4,7.6-5.5
			c0-8.3-22-3.5-22-17.3c0-5.7,5.4-10.4,13.7-10.4c8.2,0,13.7,4.4,14.1,11.7h-6.2c-0.3-3.7-3.1-6.5-8.1-6.5c-4.6,0-7.3,2.2-7.3,5.2
			c0,8.8,21.6,4,21.9,17.3C751.7,769.2,746.3,773.8,738.1,773.8z"/>
		<path class="st3" d="M775.3,741.1h-4.8V736h4.8v-9.4h6.2v9.4h9.7v5.1h-9.7v22c0,3.7,1.4,5,5.2,5h4.6v5.2h-5.6
			c-6.6,0-10.3-2.7-10.3-10.2V741.1z"/>
		<path class="st3" d="M828.4,773.8c-10.6,0-18.4-7.5-18.4-19.3c0-11.8,7.5-19.2,18.4-19.2c10.8,0,17.9,7.6,17.9,17.8
			c0,1.4-0.1,2.4-0.2,3.7h-29.8c0.5,7.5,5.8,11.7,12.1,11.7c5.6,0,9.1-2.9,10.5-6.9h6.7C843.7,768.5,837.7,773.8,828.4,773.8z
			 M816.4,751.9h23.5c0.1-7.3-5.4-11.3-11.8-11.3C822.1,740.6,817.1,744.6,816.4,751.9z M834.8,720.1v5.4l-14.5,7.8v-4.6
			L834.8,720.1z"/>
		<path class="st3" d="M869.4,741.1h-4.8V736h4.8v-9.4h6.2v9.4h9.7v5.1h-9.7v22c0,3.7,1.4,5,5.2,5h4.6v5.2h-5.6
			c-6.6,0-10.3-2.7-10.3-10.2V741.1z"/>
		<path class="st3" d="M905.4,725.7c0-2.4,1.8-4.2,4.2-4.2c2.2,0,4.1,1.8,4.1,4.2s-1.8,4.2-4.1,4.2
			C907.3,729.9,905.4,728.1,905.4,725.7z M906.4,736h6.2v37.3h-6.2V736z"/>
		<path class="st3" d="M952.6,735.4c9.2,0,15.3,4.8,17.2,12.6h-6.7c-1.3-4.5-5-7.3-10.5-7.3c-6.8,0-11.8,4.8-11.8,13.9
			c0,9.2,5,14.1,11.8,14.1c5.5,0,9.2-2.7,10.5-7.3h6.7c-1.9,7.4-8,12.6-17.2,12.6c-10.6,0-18.2-7.5-18.2-19.3
			C934.5,742.8,942,735.4,952.6,735.4z"/>
		<path class="st3" d="M1007,735.4c6.9,0,11.7,3.5,13.9,7.4V736h6.3v37.3h-6.3v-6.9c-2.2,4-7.1,7.5-13.9,7.5
			c-9.9,0-17.6-7.8-17.6-19.4C989.3,742.8,997,735.4,1007,735.4z M1008.2,740.7c-6.8,0-12.6,5-12.6,13.7s5.8,13.9,12.6,13.9
			c6.8,0,12.6-5.1,12.6-13.9C1020.9,745.9,1015,740.7,1008.2,740.7z"/>
	</g>
</g>
</svg>
